<svg preserveAspectRatio="none" width="100%" height="100%" overflow="visible" style="display: block;" viewBox="0 0 24 24" fill="none" xmlns="http://www.w3.org/2000/svg">
<g id="Icon">
<path id="Vector" d="M12 5C12.0012 4.60003 11.9224 4.20386 11.7682 3.8348C11.614 3.46574 11.3876 3.13123 11.1023 2.85095C10.8169 2.57067 10.4784 2.35027 10.1067 2.20273C9.73489 2.05519 9.33738 1.98348 8.9375 1.99181C8.53761 2.00015 8.14343 2.08836 7.77814 2.25127C7.41285 2.41417 7.08382 2.64848 6.8104 2.9404C6.53699 3.23233 6.32471 3.57598 6.18605 3.95115C6.04739 4.32632 5.98516 4.72543 6.003 5.125C5.4152 5.27614 4.8695 5.55905 4.40723 5.95231C3.94496 6.34557 3.57824 6.83887 3.33484 7.39485C3.09145 7.95082 2.97776 8.55489 3.00239 9.16131C3.02702 9.76773 3.18932 10.3606 3.477 10.895C2.97118 11.3059 2.57343 11.8342 2.31834 12.4339C2.06325 13.0336 1.95856 13.6866 2.01336 14.336C2.06817 14.9854 2.28082 15.6116 2.63281 16.16C2.98479 16.7085 3.46546 17.1627 4.033 17.483C3.96292 18.0252 4.00474 18.5761 4.15589 19.1015C4.30703 19.627 4.5643 20.1158 4.91178 20.538C5.25927 20.9601 5.68961 21.3065 6.17622 21.5558C6.66283 21.805 7.19538 21.9519 7.74098 21.9873C8.28658 22.0227 8.83364 21.9459 9.34839 21.7616C9.86313 21.5773 10.3346 21.2894 10.7338 20.9158C11.1329 20.5421 11.4512 20.0906 11.669 19.5891C11.8868 19.0876 11.9994 18.5467 12 18V5Z" stroke="var(--stroke-0, white)" stroke-width="2" stroke-linecap="round" stroke-linejoin="round"/>
<path id="Vector_2" d="M12 5C11.9988 4.60003 12.0776 4.20386 12.2318 3.8348C12.386 3.46574 12.6124 3.13123 12.8977 2.85095C13.1831 2.57067 13.5216 2.35027 13.8933 2.20273C14.2651 2.05519 14.6626 1.98348 15.0625 1.99181C15.4624 2.00015 15.8566 2.08836 16.2219 2.25127C16.5872 2.41417 16.9162 2.64848 17.1896 2.9404C17.463 3.23233 17.6753 3.57598 17.8139 3.95115C17.9526 4.32632 18.0148 4.72543 17.997 5.125C18.5848 5.27614 19.1305 5.55905 19.5928 5.95231C20.055 6.34557 20.4218 6.83887 20.6652 7.39485C20.9086 7.95082 21.0222 8.55489 20.9976 9.16131C20.973 9.76773 20.8107 10.3606 20.523 10.895C21.0288 11.3059 21.4266 11.8342 21.6817 12.4339C21.9367 13.0336 22.0414 13.6866 21.9866 14.336C21.9318 14.9854 21.7192 15.6116 21.3672 16.16C21.0152 16.7085 20.5345 17.1627 19.967 17.483C20.0371 18.0252 19.9953 18.5761 19.8441 19.1015C19.693 19.627 19.4357 20.1158 19.0882 20.538C18.7407 20.9601 18.3104 21.3065 17.8238 21.5558C17.3372 21.805 16.8046 21.9519 16.259 21.9873C15.7134 22.0227 15.1664 21.9459 14.6516 21.7616C14.1369 21.5773 13.6654 21.2894 13.2662 20.9158C12.8671 20.5421 12.5488 20.0906 12.331 19.5891C12.1132 19.0876 12.0006 18.5467 12 18V5Z" stroke="var(--stroke-0, white)" stroke-width="2" stroke-linecap="round" stroke-linejoin="round"/>
<path id="Vector_3" d="M15 13C14.1604 12.7047 13.4273 12.167 12.8933 11.455C12.3593 10.743 12.0485 9.88867 12 9C11.9515 9.88867 11.6407 10.743 11.1067 11.455C10.5727 12.167 9.83956 12.7047 9 13" stroke="var(--stroke-0, white)" stroke-width="2" stroke-linecap="round" stroke-linejoin="round"/>
<path id="Vector_4" d="M17.5986 6.5C17.8407 6.08059 17.9776 5.60882 17.9976 5.125" stroke="var(--stroke-0, white)" stroke-width="2" stroke-linecap="round" stroke-linejoin="round"/>
<path id="Vector_5" d="M6.003 5.125C6.02277 5.60873 6.15933 6.0805 6.401 6.5" stroke="var(--stroke-0, white)" stroke-width="2" stroke-linecap="round" stroke-linejoin="round"/>
<path id="Vector_6" d="M3.47656 10.896C3.6595 10.747 3.85527 10.6145 4.06156 10.5" stroke="var(--stroke-0, white)" stroke-width="2" stroke-linecap="round" stroke-linejoin="round"/>
<path id="Vector_7" d="M19.9385 10.5C20.1448 10.6145 20.3405 10.747 20.5235 10.896" stroke="var(--stroke-0, white)" stroke-width="2" stroke-linecap="round" stroke-linejoin="round"/>
<path id="Vector_8" d="M6 18C5.31083 18.0003 4.63327 17.8226 4.033 17.484" stroke="var(--stroke-0, white)" stroke-width="2" stroke-linecap="round" stroke-linejoin="round"/>
<path id="Vector_9" d="M19.967 17.484C19.3667 17.8226 18.6892 18.0003 18 18" stroke="var(--stroke-0, white)" stroke-width="2" stroke-linecap="round" stroke-linejoin="round"/>
</g>
</svg>
