<svg preserveAspectRatio="none" width="100%" height="100%" overflow="visible" style="display: block;" viewBox="0 0 16 16" fill="none" xmlns="http://www.w3.org/2000/svg">
<g id="Icon">
<path id="Vector" d="M1.3737 8.232C1.31814 8.08232 1.31814 7.91768 1.3737 7.768C1.91483 6.4559 2.83338 5.33403 4.01288 4.5446C5.19239 3.75517 6.57973 3.33374 7.99904 3.33374C9.41834 3.33374 10.8057 3.75517 11.9852 4.5446C13.1647 5.33403 14.0832 6.4559 14.6244 7.768C14.6799 7.91768 14.6799 8.08232 14.6244 8.232C14.0832 9.5441 13.1647 10.666 11.9852 11.4554C10.8057 12.2448 9.41834 12.6663 7.99904 12.6663C6.57973 12.6663 5.19239 12.2448 4.01288 11.4554C2.83338 10.666 1.91483 9.5441 1.3737 8.232Z" stroke="var(--stroke-0, white)" stroke-opacity="0.88" stroke-width="1.33333" stroke-linecap="round" stroke-linejoin="round"/>
<path id="Vector_2" d="M8 10C9.10457 10 10 9.10457 10 8C10 6.89543 9.10457 6 8 6C6.89543 6 6 6.89543 6 8C6 9.10457 6.89543 10 8 10Z" stroke="var(--stroke-0, white)" stroke-opacity="0.88" stroke-width="1.33333" stroke-linecap="round" stroke-linejoin="round"/>
</g>
</svg>
