<svg preserveAspectRatio="none" width="100%" height="100%" overflow="visible" style="display: block;" viewBox="0 0 16 16" fill="none" xmlns="http://www.w3.org/2000/svg">
<g id="Icon">
<path id="Vector" d="M11.9993 1.33398H3.99935C3.26297 1.33398 2.66602 1.93094 2.66602 2.66732V13.334C2.66602 14.0704 3.26297 14.6673 3.99935 14.6673H11.9993C12.7357 14.6673 13.3327 14.0704 13.3327 13.334V2.66732C13.3327 1.93094 12.7357 1.33398 11.9993 1.33398Z" stroke="var(--stroke-0, #4269A7)" stroke-width="1.33333" stroke-linecap="round" stroke-linejoin="round"/>
<path id="Vector_2" d="M6 14.6667V12H10V14.6667" stroke="var(--stroke-0, #4269A7)" stroke-width="1.33333" stroke-linecap="round" stroke-linejoin="round"/>
<path id="Vector_3" d="M5.33398 4H5.34065" stroke="var(--stroke-0, #4269A7)" stroke-width="1.33333" stroke-linecap="round" stroke-linejoin="round"/>
<path id="Vector_4" d="M10.666 4H10.6727" stroke="var(--stroke-0, #4269A7)" stroke-width="1.33333" stroke-linecap="round" stroke-linejoin="round"/>
<path id="Vector_5" d="M8 4H8.00667" stroke="var(--stroke-0, #4269A7)" stroke-width="1.33333" stroke-linecap="round" stroke-linejoin="round"/>
<path id="Vector_6" d="M8 6.66699H8.00667" stroke="var(--stroke-0, #4269A7)" stroke-width="1.33333" stroke-linecap="round" stroke-linejoin="round"/>
<path id="Vector_7" d="M8 9.33301H8.00667" stroke="var(--stroke-0, #4269A7)" stroke-width="1.33333" stroke-linecap="round" stroke-linejoin="round"/>
<path id="Vector_8" d="M10.666 6.66602H10.6727" stroke="var(--stroke-0, #4269A7)" stroke-width="1.33333" stroke-linecap="round" stroke-linejoin="round"/>
<path id="Vector_9" d="M10.666 9.33398H10.6727" stroke="var(--stroke-0, #4269A7)" stroke-width="1.33333" stroke-linecap="round" stroke-linejoin="round"/>
<path id="Vector_10" d="M5.33398 6.66602H5.34065" stroke="var(--stroke-0, #4269A7)" stroke-width="1.33333" stroke-linecap="round" stroke-linejoin="round"/>
<path id="Vector_11" d="M5.33398 9.33398H5.34065" stroke="var(--stroke-0, #4269A7)" stroke-width="1.33333" stroke-linecap="round" stroke-linejoin="round"/>
</g>
</svg>
