<svg preserveAspectRatio="none" width="100%" height="100%" overflow="visible" style="display: block;" viewBox="0 0 76 75" fill="none" xmlns="http://www.w3.org/2000/svg">
<g id="Layer 1">
<path id="Vector" d="M40.8928 0L48.3926 1.42783C60.5787 4.70666 71.0775 14.9663 74.4806 27.0004L76 34.6668V40.3332L74.554 47.7389C71.0564 60.0936 60.8857 70.0942 48.3926 73.5722L40.8928 75H35.1545L27.9222 73.6421C15.2282 70.2384 5.0424 60.2411 1.49414 47.7397L0.0473338 40.3332C0.154473 38.4747 -0.100299 36.5112 0.0473338 34.6668C1.52367 16.1751 16.8109 1.35868 35.4911 0H40.892H40.8928ZM23.3396 15.337L43.7611 35.6598L51.012 28.499C42.4889 23.8557 34.0435 18.8991 25.1526 15.008L23.3388 15.3362L23.3396 15.337ZM21.4828 16.6724L20.2933 18.8258C21.158 30.3725 19.1705 43.492 20.2841 54.8497C20.3912 55.9434 20.6654 56.8581 21.4828 57.6595L42.2367 37.166L21.4828 16.6716V16.6724ZM52.9515 29.7186C51.2879 29.9718 47.1128 36.0439 45.2864 37.1668L53.1506 44.6141C53.596 44.5733 60.4757 40.8072 60.9735 40.3298C63.0758 38.3139 62.751 35.5215 60.631 33.6747C59.9113 33.0482 54.8235 30.1918 53.9562 29.9135C53.5918 29.7969 53.3944 29.6503 52.9506 29.7186H52.9515ZM23.6788 58.9974L26.6213 58.7399L50.4645 46.2844C50.7471 46.0811 51.1107 45.982 51.0061 45.5205C50.8855 44.9898 44.7785 39.386 43.8084 38.6896L23.6788 58.9965V58.9974Z" fill="var(--fill-0, #E8EDF4)"/>
</g>
</svg>
