<svg preserveAspectRatio="none" width="100%" height="100%" overflow="visible" style="display: block;" viewBox="0 0 67.1777 63.9886" fill="none" xmlns="http://www.w3.org/2000/svg">
<path id="Star 1" d="M32.6378 0.690982C32.9371 -0.230328 34.2406 -0.230327 34.5399 0.690984L41.7836 22.9848C41.9175 23.3968 42.3014 23.6758 42.7347 23.6758H66.1758C67.1445 23.6758 67.5473 24.9154 66.7636 25.4848L47.7993 39.2632C47.4488 39.5178 47.3022 39.9692 47.436 40.3812L54.6797 62.675C54.9791 63.5963 53.9246 64.3625 53.1409 63.7931L34.1766 50.0147C33.8262 49.7601 33.3516 49.7601 33.0011 50.0147L14.0368 63.7931C13.2531 64.3625 12.1986 63.5963 12.498 62.675L19.7417 40.3812C19.8755 39.9692 19.7289 39.5178 19.3784 39.2632L0.414131 25.4848C-0.369582 24.9154 0.033194 23.6758 1.00192 23.6758H24.443C24.8763 23.6758 25.2602 23.3968 25.3941 22.9848L32.6378 0.690982Z" fill="var(--fill-0, #E8EDF4)"/>
</svg>
