<svg preserveAspectRatio="none" width="100%" height="100%" overflow="visible" style="display: block;" viewBox="0 0 68.0419 75" fill="none" xmlns="http://www.w3.org/2000/svg">
<g id="Group">
<path id="Vector" d="M64.2368 70.9715H68.0419V74.6644L67.7062 75H0.335639L0 74.6644V70.9715H3.80503V44.7841H20.8155C20.8322 44.5883 20.8933 44.369 21.0323 44.2283C25.4684 39.7018 29.4366 34.7191 33.9397 30.252C34.2402 30.1993 35.4263 31.5059 35.7025 31.7997C39.7218 36.0609 43.4222 40.6309 47.562 44.7841H63.9012C64.19 44.9733 64.2368 45.4889 64.2368 45.791V70.9707V70.9715ZM33.0709 39.9194C24.4121 41.0536 25.825 54.5821 35.0036 53.4881C43.5419 52.4712 42.2219 38.72 33.0709 39.9194ZM12.7576 47.9179H8.05702V56.4227H12.7576V47.9179ZM22.8302 47.9179H17.9061C18.1555 50.3594 17.6131 53.2504 17.8943 55.651C17.9328 55.9766 17.922 56.2268 18.2417 56.4227H22.8302V47.9179ZM50.1358 47.9179H45.2117V56.4227H49.8002L50.1358 56.087V47.9179ZM59.984 47.9179H55.2834V56.4227H59.984V47.9179ZM12.7576 60.452H8.05702V68.9568H12.7576V60.452ZM22.8302 60.452H17.9061V68.9568H22.8302V60.452ZM50.1358 60.452H45.2117V68.9568H49.8002L50.1358 68.6212V60.452ZM59.984 60.452H55.2834V68.9568H59.984V60.452ZM37.6016 60.8998C35.3057 61.4029 32.7755 61.0739 30.4394 60.8998V70.9715H37.6016V60.8998Z" fill="var(--fill-0, #E8EDF4)"/>
<path id="Vector_2" d="M33.3496 0.355845C33.4031 0.176726 33.7036 0.0277388 33.9095 0.00597667C35.2111 -0.129618 34.539 2.0784 34.6938 2.9288C39.9979 1.1443 44.9588 6.22158 50.1366 3.60092V11.7701C46.1081 14.7448 41.1078 10.6359 36.8206 10.99C36.3971 11.0252 35.1726 11.2821 34.9089 11.5391C34.5925 11.8488 34.5607 16.4875 34.8085 17.0256L43.5795 26.6085L61.3022 26.6813L67.8183 43.2172H47.8984C47.8607 43.2172 47.8323 42.8021 47.577 42.5409C42.9676 37.8093 38.7742 32.6869 34.102 28.013C33.8074 27.962 32.5101 29.3681 32.2246 29.6695C28.2305 33.888 24.5242 38.3751 20.4656 42.5401C20.2111 42.8012 20.1818 43.2164 20.1441 43.2164H0.223407L6.7395 26.6805L24.4614 26.6077L33.3487 16.9177V0.355845H33.3496Z" fill="var(--fill-0, #E8EDF4)"/>
<path id="Vector_3" d="M34.6923 41.2035V45.5676L35.0631 45.8689L37.4712 46.1024V47.2726C36.7572 47.6132 35.9729 47.373 35.2623 47.481C34.7567 47.558 33.4887 48.477 32.886 47.5454C32.2357 46.5394 33.2476 46.0095 33.3606 45.1315C33.5079 43.9806 33.2367 42.5418 33.3405 41.3533C33.4443 40.9314 34.3843 41.0829 34.6931 41.2043L34.6923 41.2035Z" fill="var(--fill-0, #E8EDF4)"/>
</g>
</svg>
