<svg preserveAspectRatio="none" width="100%" height="100%" overflow="visible" style="display: block;" viewBox="0 0 75 75" fill="none" xmlns="http://www.w3.org/2000/svg">
<g id="Group">
<path id="Vector" d="M35.6504 0.052318C62.2436 -1.33564 81.8056 25.1378 72.7616 50.2782C62.8858 77.7324 26.4311 83.825 8.20575 60.9158C-10.841 36.976 5.31533 1.63538 35.6504 0.052318ZM27.1635 11.4258C25.0186 11.6117 23.0712 13.1398 22.8841 15.3762C22.9901 30.433 22.6592 45.5356 23.0515 60.5649C23.6597 62.453 25.4803 63.5123 27.3885 63.6734C33.8259 64.2155 40.9866 63.2675 47.4998 63.6799C49.8605 63.5084 51.9702 62.0707 52.135 59.5619C52.012 44.547 52.3573 29.485 51.961 14.4963C51.328 12.5885 49.5584 11.5501 47.6241 11.3878C41.0886 10.8391 33.7788 11.7623 27.1648 11.4244L27.1635 11.4258Z" fill="var(--fill-0, #E8EDF4)"/>
<path id="Vector_2" d="M27.6788 16.2547L47.1035 16.2233C47.7653 16.294 48.2898 16.6017 48.6363 17.1726L48.741 55.2512C48.7122 56.2202 47.8542 56.6758 46.9779 56.7531C40.9473 57.286 34.1463 56.3393 28.0346 56.7531C27.3335 56.7321 26.7358 56.3969 26.3762 55.7998V17.1713C26.673 16.6829 27.1151 16.3699 27.6801 16.2547H27.6788Z" fill="var(--fill-0, #E8EDF4)"/>
<path id="Vector_3" d="M33.941 58.9961H41.0702C41.6758 59.1742 41.3606 60.5988 41.4051 61.1082L41.3004 61.2653L33.8023 61.3046C33.4845 61.1998 33.389 59.127 33.941 58.9961Z" fill="var(--fill-0, #E8EDF4)"/>
<path id="Vector_4" d="M33.9148 13.4775H41.0964C41.1618 13.4775 41.4378 13.8062 41.4286 13.9424C41.4979 14.11 41.1919 14.5237 41.0964 14.5237H33.9148C33.8494 14.5237 33.5734 14.1951 33.5826 14.0589L33.9148 13.4775Z" fill="var(--fill-0, #E8EDF4)"/>
</g>
</svg>
