<svg preserveAspectRatio="none" width="100%" height="100%" overflow="visible" style="display: block;" viewBox="0 0 14 14" fill="none" xmlns="http://www.w3.org/2000/svg">
<g id="Icon">
<path id="Vector" d="M8.45866 4.08337L5.54199 7.00004" stroke="var(--stroke-0, #334D65)" stroke-width="1.16667" stroke-linecap="round" stroke-linejoin="round"/>
<path id="Vector_2" d="M2.33301 11.375V2.62496C2.33301 2.23819 2.48665 1.86725 2.76014 1.59376C3.03363 1.32027 3.40457 1.16663 3.79134 1.16663H11.083C11.2377 1.16663 11.3861 1.22808 11.4955 1.33748C11.6049 1.44688 11.6663 1.59525 11.6663 1.74996V12.25C11.6663 12.4047 11.6049 12.553 11.4955 12.6624C11.3861 12.7718 11.2377 12.8333 11.083 12.8333H3.79134C3.40457 12.8333 3.03363 12.6796 2.76014 12.4062C2.48665 12.1327 2.33301 11.7617 2.33301 11.375ZM2.33301 11.375C2.33301 10.9882 2.48665 10.6173 2.76014 10.3438C3.03363 10.0703 3.40457 9.91663 3.79134 9.91663H11.6663" stroke="var(--stroke-0, #334D65)" stroke-width="1.16667" stroke-linecap="round" stroke-linejoin="round"/>
<path id="Vector_3" d="M5.54199 4.08337L8.45866 7.00004" stroke="var(--stroke-0, #334D65)" stroke-width="1.16667" stroke-linecap="round" stroke-linejoin="round"/>
</g>
</svg>
