<svg preserveAspectRatio="none" width="100%" height="100%" overflow="visible" style="display: block;" viewBox="0 0 14 14" fill="none" xmlns="http://www.w3.org/2000/svg">
<g id="Icon">
<path id="Vector" d="M9.33366 12.25V11.0833C9.33366 10.4645 9.08783 9.871 8.65024 9.43342C8.21266 8.99583 7.61916 8.75 7.00033 8.75H3.50033C2.88149 8.75 2.28799 8.99583 1.85041 9.43342C1.41282 9.871 1.16699 10.4645 1.16699 11.0833V12.25" stroke="var(--stroke-0, #334D65)" stroke-width="1.16667" stroke-linecap="round" stroke-linejoin="round"/>
<path id="Vector_2" d="M5.25033 6.41667C6.53899 6.41667 7.58366 5.372 7.58366 4.08333C7.58366 2.79467 6.53899 1.75 5.25033 1.75C3.96166 1.75 2.91699 2.79467 2.91699 4.08333C2.91699 5.372 3.96166 6.41667 5.25033 6.41667Z" stroke="var(--stroke-0, #334D65)" stroke-width="1.16667" stroke-linecap="round" stroke-linejoin="round"/>
<path id="Vector_3" d="M12.833 12.25V11.0833C12.8326 10.5663 12.6605 10.0641 12.3438 9.65549C12.0271 9.24689 11.5836 8.95505 11.083 8.82581" stroke="var(--stroke-0, #334D65)" stroke-width="1.16667" stroke-linecap="round" stroke-linejoin="round"/>
<path id="Vector_4" d="M9.33301 1.82581C9.83492 1.95431 10.2798 2.24621 10.5975 2.65549C10.9151 3.06476 11.0876 3.56812 11.0876 4.08622C11.0876 4.60432 10.9151 5.10769 10.5975 5.51696C10.2798 5.92623 9.83492 6.21813 9.33301 6.34664" stroke="var(--stroke-0, #334D65)" stroke-width="1.16667" stroke-linecap="round" stroke-linejoin="round"/>
</g>
</svg>
