<svg width="41" height="41" viewBox="0 0 41 41" fill="none" xmlns="http://www.w3.org/2000/svg">
  <path fill-rule="evenodd" clip-rule="evenodd" d="M0 20.5C0 9.17815 9.17818 0 20.5 0C25.9369 0 31.1512 2.15982 34.9957 6.00429C38.8402 9.84881 41 15.0631 41 20.5C41 31.8218 31.8219 41 20.5 41C9.17818 41 0 31.8218 0 20.5ZM16.7486 29.274L28.7001 21.812C29.1473 21.5256 29.4178 21.0311 29.4178 20.5C29.4178 19.9689 29.1473 19.4744 28.7001 19.188L16.7076 11.726C16.2352 11.4282 15.6385 11.4099 15.1488 11.6781C14.6591 11.9464 14.3533 12.4591 14.3501 13.0175V27.9825C14.3435 28.5545 14.6549 29.0828 15.1585 29.354C15.6621 29.6252 16.2747 29.5944 16.7486 29.274Z" fill="white"/>
</svg>
