<svg preserveAspectRatio="none" width="100%" height="100%" overflow="visible" style="display: block;" viewBox="0 0 20.305 19.6332" fill="none" xmlns="http://www.w3.org/2000/svg">
<path id="Vector" d="M1.70312 0.5H18.5957C18.9384 0.5 19.2141 0.614574 19.4521 0.852539C19.6902 1.09055 19.8046 1.36637 19.8047 1.70898V14.5928C19.8047 14.9278 19.6918 15.2021 19.4521 15.4424C19.214 15.6813 18.938 15.7959 18.5957 15.7959H12.5479L12.3994 16.0195L10.4424 18.958L10.4395 18.9619C10.3967 19.0274 10.352 19.0672 10.3057 19.0928C10.2546 19.1209 10.2046 19.1328 10.1494 19.1328C10.0918 19.1328 10.0414 19.1204 9.99121 19.0928C9.94577 19.0677 9.90214 19.0295 9.86133 18.9658L9.85742 18.958L7.90039 16.0195L7.75195 15.7959H1.70312C1.36317 15.7959 1.08869 15.682 0.851562 15.4434C0.612826 15.2031 0.5 14.9284 0.5 14.5928V1.70898L0.505859 1.58398C0.530924 1.29776 0.644016 1.05984 0.851562 0.851562C1.08852 0.613891 1.3628 0.500028 1.70312 0.5ZM1.19727 15.0928H8.12305L9.73242 17.5225L10.1494 18.1514L10.5664 17.5225L12.1758 15.0928H19.1016V1.20312H1.19727V15.0928Z" fill="var(--fill-0, black)" stroke="var(--stroke-0, black)"/>
</svg>
