<svg width="33" height="33" viewBox="0 0 33 33" fill="none" xmlns="http://www.w3.org/2000/svg">
<rect width="33" height="33" fill="#F5F5F5"/>
<g id="Recognition">
<rect width="1440" height="3780" transform="translate(-180 -373)" fill="white"/>
<g id="Group 69569">
<g id="Frame">
<path id="Vector" d="M22.6877 25.7812H10.3127M22.6877 25.7812C23.7817 25.7813 24.831 26.2158 25.6045 26.9894C26.3781 27.763 26.8127 28.8122 26.8127 29.9062H6.18772C6.18772 28.8122 6.62232 27.763 7.39591 26.9894C8.16949 26.2158 9.2187 25.7813 10.3127 25.7812M22.6877 25.7812V21.1406C22.6877 20.2868 21.9961 19.5938 21.1408 19.5938H19.9432M10.3127 25.7812V21.1406C10.3127 20.2868 11.0057 19.5938 11.8596 19.5938H13.0586M19.9432 19.5938H13.0586M19.9432 19.5938C19.1709 18.2599 18.7094 16.7691 18.593 15.2323M13.0586 19.5938C13.8304 18.2598 14.2915 16.769 14.4075 15.2323M25.7815 5.8245V6.1875C25.7815 9.086 24.4532 11.6737 22.3715 13.376C21.271 14.2772 19.9789 14.9124 18.593 15.2323M18.593 15.2323C17.2159 15.5499 15.7846 15.5499 14.4075 15.2323M7.21897 5.8245V6.1875C7.21897 9.086 8.54722 11.6737 10.629 13.376C11.729 14.277 13.022 14.9122 14.4075 15.2323M7.21897 5.8245C5.86872 6.02113 4.53222 6.26038 3.20947 6.5395C3.51609 8.33908 4.41064 9.98625 5.75315 11.2233C7.09565 12.4603 8.81036 13.2173 10.629 13.376M7.21897 5.8245V3.74137C10.2522 3.31375 13.3515 3.09375 16.5002 3.09375C19.6503 3.09375 22.7496 3.31375 25.7815 3.74V5.8245M25.7815 5.8245C27.1253 6.02003 28.4624 6.25848 29.791 6.5395C29.4844 8.33887 28.5901 9.98588 27.2478 11.2229C25.9056 12.4599 24.1898 13.2171 22.3715 13.376" stroke="white" stroke-width="1.5" stroke-linecap="round" stroke-linejoin="round"/>
</g>
</g>
</g>
</svg>
