<svg width="68" height="64" viewBox="0 0 68 64" fill="none" xmlns="http://www.w3.org/2000/svg">
  <path d="M32.6378 0.690966C32.9372 -0.230345 34.2406 -0.230344 34.5399 0.690967L41.7836 22.9848C41.9175 23.3968 42.3015 23.6758 42.7347 23.6758H66.1758C67.1445 23.6758 67.5473 24.9154 66.7636 25.4848L47.7993 39.2631C47.4488 39.5178 47.3022 39.9692 47.4361 40.3812L54.6798 62.675C54.9791 63.5963 53.9246 64.3624 53.1409 63.793L34.1767 50.0147C33.8262 49.76 33.3516 49.76 33.0011 50.0147L14.0368 63.793C13.2531 64.3624 12.1986 63.5963 12.498 62.675L19.7417 40.3812C19.8756 39.9692 19.7289 39.5178 19.3784 39.2631L0.414145 25.4848C-0.369569 24.9154 0.0332079 23.6758 1.00193 23.6758H24.4431C24.8763 23.6758 25.2602 23.3968 25.3941 22.9848L32.6378 0.690966Z" fill="#E8EDF4"/>
</svg>
